<mxfile host="app.diagrams.net" modified="2023-05-31T18:55:38.750Z" agent="Mozilla/5.0 (Windows NT 10.0; Win64; x64) AppleWebKit/537.36 (KHTML, like Gecko) Chrome/113.0.0.0 Safari/537.36" etag="GtU6G683VHXlkJZKnrT1" version="21.3.5" type="device">
  <diagram id="C5RBs43oDa-KdzZeNtuy" name="Page-1">
    <mxGraphModel dx="1434" dy="764" grid="0" gridSize="10" guides="1" tooltips="1" connect="1" arrows="1" fold="1" page="0" pageScale="1" pageWidth="827" pageHeight="1169" math="0" shadow="0">
      <root>
        <mxCell id="WIyWlLk6GJQsqaUBKTNV-0" />
        <mxCell id="WIyWlLk6GJQsqaUBKTNV-1" parent="WIyWlLk6GJQsqaUBKTNV-0" />
        <mxCell id="9sLRjcQ7X8aYDR6l7j2T-0" value="NutritionReq" style="swimlane;fontStyle=1;align=center;verticalAlign=top;childLayout=stackLayout;horizontal=1;startSize=26;horizontalStack=0;resizeParent=1;resizeParentMax=0;resizeLast=0;collapsible=1;marginBottom=0;whiteSpace=wrap;html=1;" parent="WIyWlLk6GJQsqaUBKTNV-1" vertex="1">
          <mxGeometry x="193" y="120" width="230" height="170" as="geometry" />
        </mxCell>
        <mxCell id="9sLRjcQ7X8aYDR6l7j2T-1" value="+ calories: int&lt;br&gt;+ fat: double&lt;br&gt;+ protein: double&lt;br&gt;+ carbs: double&lt;br&gt;- Calculators: IEnumerable&amp;lt;ICalculator&amp;gt;&lt;br&gt;" style="text;strokeColor=none;fillColor=none;align=left;verticalAlign=top;spacingLeft=4;spacingRight=4;overflow=hidden;rotatable=0;points=[[0,0.5],[1,0.5]];portConstraint=eastwest;whiteSpace=wrap;html=1;" parent="9sLRjcQ7X8aYDR6l7j2T-0" vertex="1">
          <mxGeometry y="26" width="230" height="84" as="geometry" />
        </mxCell>
        <mxCell id="9sLRjcQ7X8aYDR6l7j2T-2" value="" style="line;strokeWidth=1;fillColor=none;align=left;verticalAlign=middle;spacingTop=-1;spacingLeft=3;spacingRight=3;rotatable=0;labelPosition=right;points=[];portConstraint=eastwest;strokeColor=inherit;" parent="9sLRjcQ7X8aYDR6l7j2T-0" vertex="1">
          <mxGeometry y="110" width="230" height="8" as="geometry" />
        </mxCell>
        <mxCell id="9sLRjcQ7X8aYDR6l7j2T-3" value="+ NutritionRequirement(UserData User)&lt;br&gt;+ RunCalculators(UserData user): List&amp;lt;double&amp;gt;" style="text;strokeColor=none;fillColor=none;align=left;verticalAlign=top;spacingLeft=4;spacingRight=4;overflow=hidden;rotatable=0;points=[[0,0.5],[1,0.5]];portConstraint=eastwest;whiteSpace=wrap;html=1;" parent="9sLRjcQ7X8aYDR6l7j2T-0" vertex="1">
          <mxGeometry y="118" width="230" height="52" as="geometry" />
        </mxCell>
        <mxCell id="5q2fVGUxJ8sDlgLdl0tQ-12" style="edgeStyle=orthogonalEdgeStyle;rounded=0;orthogonalLoop=1;jettySize=auto;html=1;exitX=0.5;exitY=0;exitDx=0;exitDy=0;" edge="1" parent="WIyWlLk6GJQsqaUBKTNV-1" source="9sLRjcQ7X8aYDR6l7j2T-4">
          <mxGeometry relative="1" as="geometry">
            <mxPoint x="101" y="384" as="targetPoint" />
          </mxGeometry>
        </mxCell>
        <mxCell id="5q2fVGUxJ8sDlgLdl0tQ-13" style="edgeStyle=orthogonalEdgeStyle;rounded=0;orthogonalLoop=1;jettySize=auto;html=1;exitX=0.5;exitY=0;exitDx=0;exitDy=0;entryX=0.461;entryY=0.981;entryDx=0;entryDy=0;entryPerimeter=0;" edge="1" parent="WIyWlLk6GJQsqaUBKTNV-1" source="9sLRjcQ7X8aYDR6l7j2T-4" target="9sLRjcQ7X8aYDR6l7j2T-3">
          <mxGeometry relative="1" as="geometry" />
        </mxCell>
        <mxCell id="5q2fVGUxJ8sDlgLdl0tQ-14" style="edgeStyle=orthogonalEdgeStyle;rounded=0;orthogonalLoop=1;jettySize=auto;html=1;exitX=0.5;exitY=0;exitDx=0;exitDy=0;" edge="1" parent="WIyWlLk6GJQsqaUBKTNV-1" source="9sLRjcQ7X8aYDR6l7j2T-4">
          <mxGeometry relative="1" as="geometry">
            <mxPoint x="528" y="299" as="targetPoint" />
          </mxGeometry>
        </mxCell>
        <mxCell id="5q2fVGUxJ8sDlgLdl0tQ-15" style="edgeStyle=orthogonalEdgeStyle;rounded=0;orthogonalLoop=1;jettySize=auto;html=1;exitX=0.5;exitY=0;exitDx=0;exitDy=0;" edge="1" parent="WIyWlLk6GJQsqaUBKTNV-1" source="9sLRjcQ7X8aYDR6l7j2T-4">
          <mxGeometry relative="1" as="geometry">
            <mxPoint x="743" y="330" as="targetPoint" />
          </mxGeometry>
        </mxCell>
        <mxCell id="9sLRjcQ7X8aYDR6l7j2T-4" value="INutritionFacts" style="swimlane;fontStyle=0;childLayout=stackLayout;horizontal=1;startSize=26;fillColor=none;horizontalStack=0;resizeParent=1;resizeParentMax=0;resizeLast=0;collapsible=1;marginBottom=0;whiteSpace=wrap;html=1;" parent="WIyWlLk6GJQsqaUBKTNV-1" vertex="1">
          <mxGeometry x="354" y="522" width="140" height="90" as="geometry" />
        </mxCell>
        <mxCell id="9sLRjcQ7X8aYDR6l7j2T-5" value="+ calories: int&lt;br&gt;+ fat: double&lt;br&gt;+ protein: double&lt;br&gt;+ carbs: double" style="text;strokeColor=none;fillColor=none;align=left;verticalAlign=top;spacingLeft=4;spacingRight=4;overflow=hidden;rotatable=0;points=[[0,0.5],[1,0.5]];portConstraint=eastwest;whiteSpace=wrap;html=1;" parent="9sLRjcQ7X8aYDR6l7j2T-4" vertex="1">
          <mxGeometry y="26" width="140" height="64" as="geometry" />
        </mxCell>
        <mxCell id="5q2fVGUxJ8sDlgLdl0tQ-0" value="Food" style="swimlane;fontStyle=1;align=center;verticalAlign=top;childLayout=stackLayout;horizontal=1;startSize=26;horizontalStack=0;resizeParent=1;resizeParentMax=0;resizeLast=0;collapsible=1;marginBottom=0;whiteSpace=wrap;html=1;" vertex="1" parent="WIyWlLk6GJQsqaUBKTNV-1">
          <mxGeometry x="23" y="120" width="160" height="256" as="geometry" />
        </mxCell>
        <mxCell id="5q2fVGUxJ8sDlgLdl0tQ-1" value="+ name: string&lt;br&gt;+ calories: int&lt;br style=&quot;border-color: var(--border-color);&quot;&gt;+ fat: double&lt;br style=&quot;border-color: var(--border-color);&quot;&gt;+ protein: double&lt;br style=&quot;border-color: var(--border-color);&quot;&gt;+ carbs: double" style="text;strokeColor=none;fillColor=none;align=left;verticalAlign=top;spacingLeft=4;spacingRight=4;overflow=hidden;rotatable=0;points=[[0,0.5],[1,0.5]];portConstraint=eastwest;whiteSpace=wrap;html=1;" vertex="1" parent="5q2fVGUxJ8sDlgLdl0tQ-0">
          <mxGeometry y="26" width="160" height="83" as="geometry" />
        </mxCell>
        <mxCell id="5q2fVGUxJ8sDlgLdl0tQ-2" value="" style="line;strokeWidth=1;fillColor=none;align=left;verticalAlign=middle;spacingTop=-1;spacingLeft=3;spacingRight=3;rotatable=0;labelPosition=right;points=[];portConstraint=eastwest;strokeColor=inherit;" vertex="1" parent="5q2fVGUxJ8sDlgLdl0tQ-0">
          <mxGeometry y="109" width="160" height="8" as="geometry" />
        </mxCell>
        <mxCell id="5q2fVGUxJ8sDlgLdl0tQ-3" value="+ Food(string, int, double, double, double)&lt;br&gt;+ UpdateFood()&lt;br&gt;- UpdateName()&lt;br&gt;- UpdateCalories()&lt;br&gt;- UpdateFat()&lt;br&gt;- UpdateProtein()&lt;br&gt;- UpdateCarbs()&lt;br&gt;+ PrintFacts()" style="text;strokeColor=none;fillColor=none;align=left;verticalAlign=top;spacingLeft=4;spacingRight=4;overflow=hidden;rotatable=0;points=[[0,0.5],[1,0.5]];portConstraint=eastwest;whiteSpace=wrap;html=1;" vertex="1" parent="5q2fVGUxJ8sDlgLdl0tQ-0">
          <mxGeometry y="117" width="160" height="139" as="geometry" />
        </mxCell>
        <mxCell id="5q2fVGUxJ8sDlgLdl0tQ-4" value="Intake" style="swimlane;fontStyle=1;align=center;verticalAlign=top;childLayout=stackLayout;horizontal=1;startSize=26;horizontalStack=0;resizeParent=1;resizeParentMax=0;resizeLast=0;collapsible=1;marginBottom=0;whiteSpace=wrap;html=1;" vertex="1" parent="WIyWlLk6GJQsqaUBKTNV-1">
          <mxGeometry x="442" y="120" width="160" height="170" as="geometry" />
        </mxCell>
        <mxCell id="5q2fVGUxJ8sDlgLdl0tQ-5" value="+ date: DateTime&lt;br&gt;+ amount: double&lt;br&gt;+ calories: int&lt;br style=&quot;border-color: var(--border-color);&quot;&gt;+ fat: double&lt;br style=&quot;border-color: var(--border-color);&quot;&gt;+ protein: double&lt;br style=&quot;border-color: var(--border-color);&quot;&gt;+ carbs: double" style="text;strokeColor=none;fillColor=none;align=left;verticalAlign=top;spacingLeft=4;spacingRight=4;overflow=hidden;rotatable=0;points=[[0,0.5],[1,0.5]];portConstraint=eastwest;whiteSpace=wrap;html=1;" vertex="1" parent="5q2fVGUxJ8sDlgLdl0tQ-4">
          <mxGeometry y="26" width="160" height="98" as="geometry" />
        </mxCell>
        <mxCell id="5q2fVGUxJ8sDlgLdl0tQ-6" value="" style="line;strokeWidth=1;fillColor=none;align=left;verticalAlign=middle;spacingTop=-1;spacingLeft=3;spacingRight=3;rotatable=0;labelPosition=right;points=[];portConstraint=eastwest;strokeColor=inherit;" vertex="1" parent="5q2fVGUxJ8sDlgLdl0tQ-4">
          <mxGeometry y="124" width="160" height="8" as="geometry" />
        </mxCell>
        <mxCell id="5q2fVGUxJ8sDlgLdl0tQ-7" value="+ Intake(DateTime date, double amount, Food food)" style="text;strokeColor=none;fillColor=none;align=left;verticalAlign=top;spacingLeft=4;spacingRight=4;overflow=hidden;rotatable=0;points=[[0,0.5],[1,0.5]];portConstraint=eastwest;whiteSpace=wrap;html=1;" vertex="1" parent="5q2fVGUxJ8sDlgLdl0tQ-4">
          <mxGeometry y="132" width="160" height="38" as="geometry" />
        </mxCell>
        <mxCell id="5q2fVGUxJ8sDlgLdl0tQ-8" value="DailyIntake" style="swimlane;fontStyle=1;align=center;verticalAlign=top;childLayout=stackLayout;horizontal=1;startSize=26;horizontalStack=0;resizeParent=1;resizeParentMax=0;resizeLast=0;collapsible=1;marginBottom=0;whiteSpace=wrap;html=1;" vertex="1" parent="WIyWlLk6GJQsqaUBKTNV-1">
          <mxGeometry x="619" y="120" width="230" height="203" as="geometry" />
        </mxCell>
        <mxCell id="5q2fVGUxJ8sDlgLdl0tQ-9" value="+ date: DateTime&lt;br&gt;+ Intakes: List&amp;lt;Intake&amp;gt;&lt;br&gt;+ calories: int&lt;br style=&quot;border-color: var(--border-color);&quot;&gt;+ fat: double&lt;br style=&quot;border-color: var(--border-color);&quot;&gt;+ protein: double&lt;br style=&quot;border-color: var(--border-color);&quot;&gt;+ carbs: double" style="text;strokeColor=none;fillColor=none;align=left;verticalAlign=top;spacingLeft=4;spacingRight=4;overflow=hidden;rotatable=0;points=[[0,0.5],[1,0.5]];portConstraint=eastwest;whiteSpace=wrap;html=1;" vertex="1" parent="5q2fVGUxJ8sDlgLdl0tQ-8">
          <mxGeometry y="26" width="230" height="98" as="geometry" />
        </mxCell>
        <mxCell id="5q2fVGUxJ8sDlgLdl0tQ-10" value="" style="line;strokeWidth=1;fillColor=none;align=left;verticalAlign=middle;spacingTop=-1;spacingLeft=3;spacingRight=3;rotatable=0;labelPosition=right;points=[];portConstraint=eastwest;strokeColor=inherit;" vertex="1" parent="5q2fVGUxJ8sDlgLdl0tQ-8">
          <mxGeometry y="124" width="230" height="8" as="geometry" />
        </mxCell>
        <mxCell id="5q2fVGUxJ8sDlgLdl0tQ-11" value="+ DailyIntake(DateTime date)&lt;br&gt;+AddIntake(double Amount, Food food)&lt;br&gt;+ CalcDailyIntake(Intake intake)&lt;br&gt;+ PrintDailyIntake()" style="text;strokeColor=none;fillColor=none;align=left;verticalAlign=top;spacingLeft=4;spacingRight=4;overflow=hidden;rotatable=0;points=[[0,0.5],[1,0.5]];portConstraint=eastwest;whiteSpace=wrap;html=1;" vertex="1" parent="5q2fVGUxJ8sDlgLdl0tQ-8">
          <mxGeometry y="132" width="230" height="71" as="geometry" />
        </mxCell>
        <mxCell id="5q2fVGUxJ8sDlgLdl0tQ-16" value="implements" style="text;html=1;strokeColor=none;fillColor=none;align=center;verticalAlign=middle;whiteSpace=wrap;rounded=0;" vertex="1" parent="WIyWlLk6GJQsqaUBKTNV-1">
          <mxGeometry x="394" y="476" width="60" height="30" as="geometry" />
        </mxCell>
      </root>
    </mxGraphModel>
  </diagram>
</mxfile>
